<svg width="80" height="80" viewBox="0 0 80 80" fill="none" xmlns="http://www.w3.org/2000/svg">
<rect width="80" height="80" rx="40" fill="#1F2B6C"/>
<path d="M36.0668 39.3931C35.9418 39.5171 35.8426 39.6645 35.7749 39.827C35.7072 39.9895 35.6724 40.1638 35.6724 40.3398C35.6724 40.5158 35.7072 40.6901 35.7749 40.8526C35.8426 41.015 35.9418 41.1625 36.0668 41.2865C36.3166 41.5348 36.6545 41.6742 37.0068 41.6742C37.359 41.6742 37.697 41.5348 37.9468 41.2865C38.0718 41.1625 38.1709 41.015 38.2386 40.8526C38.3063 40.6901 38.3412 40.5158 38.3412 40.3398C38.3412 40.1638 38.3063 39.9895 38.2386 39.827C38.1709 39.6645 38.0718 39.5171 37.9468 39.3931C37.697 39.1448 37.359 39.0054 37.0068 39.0054C36.6545 39.0054 36.3166 39.1448 36.0668 39.3931ZM39.3601 42.6998C39.1118 42.9496 38.9724 43.2875 38.9724 43.6398C38.9724 43.992 39.1118 44.33 39.3601 44.5798C39.4841 44.7048 39.6315 44.8039 39.794 44.8716C39.9565 44.9393 40.1308 44.9742 40.3068 44.9742C40.4828 44.9742 40.6571 44.9393 40.8196 44.8716C40.982 44.8039 41.1295 44.7048 41.2534 44.5798C41.5018 44.33 41.6412 43.992 41.6412 43.6398C41.6412 43.2875 41.5018 42.9496 41.2534 42.6998C41.1295 42.5748 40.982 42.4756 40.8196 42.4079C40.6571 42.3402 40.4828 42.3054 40.3068 42.3054C40.1308 42.3054 39.9565 42.3402 39.794 42.4079C39.6315 42.4756 39.4841 42.5748 39.3601 42.6998ZM51.3601 29.3665C49.9097 27.9041 47.9512 27.0575 45.8923 27.0028C43.8334 26.9482 41.8327 27.6897 40.3068 29.0731C38.7879 27.7059 36.8034 26.9718 34.7604 27.0213C32.7174 27.0709 30.7709 27.9005 29.3201 29.3398C27.8788 30.7929 27.0492 32.7432 27.0021 34.7893C26.955 36.8355 27.6939 38.8219 29.0668 40.3398C28.0403 41.4873 27.3668 42.9066 27.1271 44.4274C26.8873 45.9482 27.0915 47.5059 27.715 48.9136C28.3386 50.3213 29.3552 51.5191 30.6427 52.3633C31.9301 53.2075 33.4339 53.6623 34.9734 53.6731C36.9471 53.6752 38.8499 52.9379 40.3068 51.6065C41.8264 52.9776 43.8137 53.7141 45.8599 53.6645C47.9061 53.6149 49.8554 52.7829 51.3068 51.3398C52.7462 49.8849 53.5734 47.9337 53.618 45.8876C53.6627 43.8415 52.9214 41.856 51.5468 40.3398C52.9214 38.8235 53.6627 36.8381 53.618 34.792C53.5734 32.7458 52.7462 30.7946 51.3068 29.3398L51.3601 29.3665ZM49.4134 31.2331C50.3407 32.187 50.878 33.4529 50.9199 34.7825C50.9619 36.1121 50.5054 37.4094 49.6401 38.4198L42.2268 31.0065C43.246 30.1608 44.5393 29.717 45.863 29.7587C47.1868 29.8005 48.4495 30.3249 49.4134 31.2331ZM31.2001 49.4465C30.2729 48.4926 29.7356 47.2267 29.6936 45.8971C29.6517 44.5675 30.1082 43.2702 30.9734 42.2598L38.4401 49.7265C37.4096 50.5772 36.102 51.0188 34.7667 50.9671C33.4314 50.9155 32.1619 50.3742 31.2001 49.4465ZM49.4134 49.4465C48.4011 50.4147 47.0543 50.955 45.6535 50.955C44.2526 50.955 42.9058 50.4147 41.8934 49.4465L31.2268 38.7798C30.2334 37.7805 29.6759 36.4288 29.6759 35.0198C29.6759 33.6108 30.2334 32.2591 31.2268 31.2598C32.226 30.2664 33.5778 29.7089 34.9868 29.7089C36.3958 29.7089 37.7475 30.2664 38.7468 31.2598L49.4134 41.9265C50.4068 42.9257 50.9643 44.2775 50.9643 45.6865C50.9643 47.0954 50.4068 48.4472 49.4134 49.4465ZM42.6668 39.3931C42.5418 39.5171 42.4426 39.6645 42.3749 39.827C42.3072 39.9895 42.2724 40.1638 42.2724 40.3398C42.2724 40.5158 42.3072 40.6901 42.3749 40.8526C42.4426 41.015 42.5418 41.1625 42.6668 41.2865C42.9166 41.5348 43.2545 41.6742 43.6068 41.6742C43.959 41.6742 44.297 41.5348 44.5468 41.2865C44.6718 41.1625 44.7709 41.015 44.8386 40.8526C44.9063 40.6901 44.9412 40.5158 44.9412 40.3398C44.9412 40.1638 44.9063 39.9895 44.8386 39.827C44.7709 39.6645 44.6718 39.5171 44.5468 39.3931C44.297 39.1448 43.959 39.0054 43.6068 39.0054C43.2545 39.0054 42.9166 39.1448 42.6668 39.3931ZM39.3601 36.0998C39.1118 36.3496 38.9724 36.6875 38.9724 37.0398C38.9724 37.392 39.1118 37.73 39.3601 37.9798C39.4841 38.1048 39.6315 38.2039 39.794 38.2716C39.9565 38.3393 40.1308 38.3742 40.3068 38.3742C40.4828 38.3742 40.6571 38.3393 40.8196 38.2716C40.982 38.2039 41.1295 38.1048 41.2534 37.9798C41.5018 37.73 41.6412 37.392 41.6412 37.0398C41.6412 36.6875 41.5018 36.3496 41.2534 36.0998C41.1295 35.9748 40.982 35.8756 40.8196 35.8079C40.6571 35.7402 40.4828 35.7054 40.3068 35.7054C40.1308 35.7054 39.9565 35.7402 39.794 35.8079C39.6315 35.8756 39.4841 35.9748 39.3601 36.0998Z" fill="#BFD2F8"/>
</svg>
