<svg width="191" height="27" viewBox="0 0 191 27" fill="none" xmlns="http://www.w3.org/2000/svg">
<path d="M4.04 5.3V24.38L6.92 25.46V26H0.08V25.46L2.96 24.38V1.88L0.8 1.34V0.799998H5.3C6.548 0.799998 7.532 1.064 8.252 1.592C8.996 2.096 9.632 2.852 10.16 3.86L18.008 18.872L24.02 3.86C24.428 2.804 24.98 2.036 25.676 1.556C26.372 1.052 27.44 0.799998 28.88 0.799998H32.66V1.34L30.5 1.88V24.92L32.66 25.46V26H22.4V25.46L24.56 24.92V5.3L16.1 26.36H15.02L4.04 5.3ZM35.9211 25.46L38.0811 24.92V1.88L35.9211 1.34V0.799998H55.1811V7.28H54.1011C53.6451 6.92 53.2491 6.464 52.9131 5.912C52.1451 4.616 51.7611 3.212 51.7611 1.7H44.0211V13.04H48.1611C48.3291 12.128 48.6411 11.276 49.0971 10.484C49.2891 10.124 49.5171 9.776 49.7811 9.44H50.8611V17.54H49.7811C49.5171 17.204 49.2891 16.856 49.0971 16.496C48.6411 15.704 48.3291 14.852 48.1611 13.94H44.0211V25.1H52.4811C52.4811 23.588 52.8651 22.184 53.6331 20.888C53.9691 20.336 54.3651 19.88 54.8211 19.52H55.9011V26H35.9211V25.46ZM59.1242 25.46L61.2842 24.92V1.88L59.1242 1.34V0.799998H68.3042C72.6002 0.799998 75.8882 1.904 78.1682 4.112C80.4722 6.32 81.6242 9.416 81.6242 13.4C81.6242 17.384 80.4722 20.48 78.1682 22.688C75.8882 24.896 72.6002 26 68.3042 26H59.1242V25.46ZM68.3042 25.1C70.5362 25.1 72.2642 24.2 73.4882 22.4C74.7122 20.576 75.3242 17.576 75.3242 13.4C75.3242 9.224 74.7122 6.236 73.4882 4.436C72.2642 2.612 70.5362 1.7 68.3042 1.7H67.2242V25.1H68.3042Z" fill="#1F2B6C"/>
<path d="M84.8586 25.46L87.0186 24.92V1.88L84.8586 1.34V0.799998H94.0386C98.3346 0.799998 101.623 1.904 103.903 4.112C106.207 6.32 107.359 9.416 107.359 13.4C107.359 17.384 106.207 20.48 103.903 22.688C101.623 24.896 98.3346 26 94.0386 26H84.8586V25.46ZM94.0386 25.1C96.2706 25.1 97.9986 24.2 99.2226 22.4C100.447 20.576 101.059 17.576 101.059 13.4C101.059 9.224 100.447 6.236 99.2226 4.436C97.9986 2.612 96.2706 1.7 94.0386 1.7H92.9586V25.1H94.0386ZM110.593 26V25.46L112.753 24.92V1.88L110.593 1.34V0.799998H120.853V1.34L118.693 1.88V24.92L120.853 25.46V26H110.593ZM136.505 26.54C132.665 26.54 129.665 25.4 127.505 23.12C125.345 20.84 124.265 17.6 124.265 13.4C124.265 10.64 124.733 8.276 125.669 6.308C126.629 4.316 127.961 2.816 129.665 1.808C131.393 0.775999 133.385 0.259999 135.641 0.259999C137.009 0.259999 138.389 0.655999 139.781 1.448C140.309 1.736 140.837 2.12 141.365 2.6C141.773 1.976 142.193 1.484 142.625 1.124C143.057 0.811998 143.297 0.643998 143.345 0.619998H144.245V7.46H142.805C142.493 6.308 142.025 5.264 141.401 4.328C140.825 3.416 140.105 2.66 139.241 2.06C138.401 1.46 137.429 1.16 136.325 1.16C134.669 1.16 133.289 2.12 132.185 4.04C131.105 5.96 130.565 9.08 130.565 13.4C130.565 17.792 131.153 20.936 132.329 22.832C133.529 24.704 135.161 25.64 137.225 25.64C138.353 25.64 139.421 25.328 140.429 24.704C141.461 24.056 142.289 23.204 142.913 22.148C143.561 21.092 143.885 19.976 143.885 18.8H144.785C144.785 20.168 144.413 21.452 143.669 22.652C142.949 23.828 141.953 24.776 140.681 25.496C139.433 26.192 138.041 26.54 136.505 26.54ZM144.635 25.46L147.515 24.38L157.415 0.439999H158.495L168.755 24.92L170.555 25.46V26H166.235C164.987 26 163.967 25.724 163.175 25.172C162.383 24.596 161.795 23.852 161.411 22.94L159.575 18.62H150.971L148.595 24.38L151.295 25.46V26H144.635V25.46ZM151.331 17.72H159.215L155.255 8.252L151.331 17.72ZM171.624 25.46L173.784 24.92V1.88L171.624 1.34V0.799998H181.884V1.34L179.724 1.88V25.1H187.464C187.464 23.588 187.848 22.184 188.616 20.888C188.952 20.336 189.348 19.88 189.804 19.52H190.884V26H171.624V25.46Z" fill="#159EEC"/>
</svg>
